<?xml version="1.0"?>
<svg width="640" height="480" xmlns="http://www.w3.org/2000/svg" xmlns:svg="http://www.w3.org/2000/svg">
 <!-- Created with SVG-edit - https://github.com/SVG-Edit/svgedit-->

 <g class="layer">
  <title>Layer 1</title>
  <line fill="none" id="svg_4" stroke="#000000" stroke-width="5" x1="562" x2="561" y1="268" y2="268"/>
  <path d="m12.210018,29.252832l0,0c0,-12.024788 15.521394,-21.772804 34.668002,-21.772804l15.758191,0l0,0l75.639294,0l141.823637,0c9.194549,0 18.012485,2.293909 24.514012,6.377106c6.501486,4.083196 10.15401,9.621197 10.15401,15.395698l0,54.432016l0,0l0,32.659199l0,0c0,12.024794 -15.521384,21.772804 -34.668012,21.772804l-141.823637,0l-98.813404,55.36318l23.17411,-55.36318l-15.758191,0c-19.146607,0 -34.668002,-9.748009 -34.668002,-21.772804l0,0l0,-32.659199l0,0l-0.00001,-54.432016z" fill="none" id="svg_6" opacity="0.5" stroke="#00ff41" stroke-width="5"/>
 </g>
</svg>